<?xml version="1.0" encoding="utf-8"?>
<!-- Generator: Adobe Illustrator 18.0.0, SVG Export Plug-In . SVG Version: 6.00 Build 0)  -->
<!DOCTYPE svg PUBLIC "-//W3C//DTD SVG 1.1//EN" "http://www.w3.org/Graphics/SVG/1.1/DTD/svg11.dtd">
<svg version="1.1" xmlns="http://www.w3.org/2000/svg" xmlns:xlink="http://www.w3.org/1999/xlink" x="0px" y="0px"
	 viewBox="0 0 44 67" enable-background="new 0 0 44 67" xml:space="preserve">
<g id="bg">
</g>
<g id="Ebene_1">
	<path fill="#FA6666" d="M0.4-14.9c5.2-7.6,12.9-17.1,12.9-28.2c0-8-5.8-14.5-13.1-14.5c-7.2,0-13.1,6.5-13.1,14.5
		c0,11.1,7.3,20.7,12.5,28.1l0.1,0.8c-2.4,3.6-4.2,6.8-4.2,9.6C-4.3-2.1-2.3,0,0.3,0c2.5,0,4.6-2.1,4.6-4.6c0-2.6-2-5.8-4.6-9.6
		L0.4-14.9z M5.4-38.6c0.8,0,1.5,0.8,1.5,1.8c0,1-0.7,1.8-1.5,1.8c-0.8,0-1.5-0.8-1.5-1.8C3.9-37.8,4.6-38.6,5.4-38.6z M-5.3-34.9
		c-0.8,0-1.5-0.8-1.5-1.8c0-1,0.7-1.8,1.5-1.8s1.5,0.8,1.5,1.8C-3.8-35.7-4.4-34.9-5.3-34.9z M-2.7-25.2c0,0.6-0.4,1.1-1,1.1
		s-1-0.6-1-1.2c0-1.8,1.6-3.8,4.3-3.8c0,0,0,0,0,0c2.9,0,4.3,2,4.7,3.6c0.1,0.5-0.3,1.2-0.8,1.3c-0.1,0-0.1,0.1-0.2,0.1
		c-0.5,0-0.9-0.6-1-1c-0.1-0.5-0.6-2-2.7-2c0,0,0,0,0,0C-2-27-2.7-25.8-2.7-25.2z"/>
</g>
<g id="Ebene_3">
</g>
</svg>
