<?xml version="1.0" encoding="utf-8"?>
<!-- Generator: Adobe Illustrator 18.0.0, SVG Export Plug-In . SVG Version: 6.00 Build 0)  -->
<!DOCTYPE svg PUBLIC "-//W3C//DTD SVG 1.1//EN" "http://www.w3.org/Graphics/SVG/1.1/DTD/svg11.dtd">
<svg version="1.1" xmlns="http://www.w3.org/2000/svg" xmlns:xlink="http://www.w3.org/1999/xlink" x="0px" y="0px"
	 viewBox="0 0 44 272" enable-background="new 0 0 44 272" xml:space="preserve">
<symbol  id="_x23_dead" viewBox="0 -66.2 40 66.2">
	
		<radialGradient id="SVGID_1_" cx="16.8237" cy="-58.4958" r="21.9247" gradientTransform="matrix(0.9756 -0.2197 0.1218 0.5408 7.5361 -23.1622)" gradientUnits="userSpaceOnUse">
		<stop  offset="0" style="stop-color:#000000;stop-opacity:0.3"/>
		<stop  offset="1" style="stop-color:#000000;stop-opacity:0"/>
	</radialGradient>
	<path fill="url(#SVGID_1_)" d="M39.5-59c0-3.4-2.7-7.2-12.7-7.2S4.6-62.4,4.6-59s7,6.2,17,6.2S39.5-55.6,39.5-59z"/>
	<linearGradient id="SVGID_2_" gradientUnits="userSpaceOnUse" x1="13.8004" y1="-58.3251" x2="13.8004" y2="-0.7499">
		<stop  offset="0.2315" style="stop-color:#D43535"/>
		<stop  offset="0.3002" style="stop-color:#EB3B3B"/>
		<stop  offset="0.496" style="stop-color:#EC3E3E"/>
		<stop  offset="0.6401" style="stop-color:#ED4747"/>
		<stop  offset="0.7675" style="stop-color:#F05757"/>
		<stop  offset="0.8847" style="stop-color:#F46E6E"/>
		<stop  offset="0.995" style="stop-color:#FA8A8A"/>
		<stop  offset="1" style="stop-color:#FA8C8C"/>
	</linearGradient>
	<path opacity="0.8" fill="url(#SVGID_2_)" stroke="#000000" stroke-width="1.5" stroke-miterlimit="10" d="M0.8-15.3
		c0,8,5.8,14.5,13.1,14.5s13.1-6.5,13.1-14.5c0-16.9-17.7-29.8-17.7-38.5c0-2.5,2.1-4.6,4.6-4.6s4.6,2.1,4.6,4.6
		C18.4-46,0.8-32.5,0.8-15.3z"/>
	<path fill="none" stroke="#000000" stroke-width="1.5" stroke-miterlimit="10" d="M0.8-15.3c0,8,5.8,14.5,13.1,14.5
		s13.1-6.5,13.1-14.5c0-16.9-17.7-29.8-17.7-38.5c0-2.5,2.1-4.6,4.6-4.6s4.6,2.1,4.6,4.6C18.4-46,0.8-32.5,0.8-15.3z"/>
	<g>
		
			<line fill="none" stroke="#000000" stroke-width="2" stroke-linecap="round" stroke-miterlimit="10" x1="6.5" y1="-23" x2="11.4" y2="-18.1"/>
		
			<line fill="none" stroke="#000000" stroke-width="2" stroke-linecap="round" stroke-miterlimit="10" x1="11.4" y1="-23" x2="6.5" y2="-18.1"/>
	</g>
	<g>
		
			<line fill="none" stroke="#000000" stroke-width="2" stroke-linecap="round" stroke-miterlimit="10" x1="16.5" y1="-22" x2="21.4" y2="-17.1"/>
		
			<line fill="none" stroke="#000000" stroke-width="2" stroke-linecap="round" stroke-miterlimit="10" x1="21.4" y1="-22" x2="16.5" y2="-17.1"/>
	</g>
	<polygon display="none" fill="none" points="0,0 40,0 40,-66 0,-66 	"/>
</symbol>
<symbol  id="_x23_happy" viewBox="0 -66.2 40 66.2">
	
		<radialGradient id="SVGID_3_" cx="16.8237" cy="-58.4958" r="21.9247" gradientTransform="matrix(0.9756 -0.2197 0.1218 0.5408 7.5361 -23.1622)" gradientUnits="userSpaceOnUse">
		<stop  offset="0" style="stop-color:#000000;stop-opacity:0.3"/>
		<stop  offset="1" style="stop-color:#000000;stop-opacity:0"/>
	</radialGradient>
	<path fill="url(#SVGID_3_)" d="M39.5-59c0-3.4-2.7-7.2-12.7-7.2S4.6-62.4,4.6-59s7,6.2,17,6.2S39.5-55.6,39.5-59z"/>
	<linearGradient id="SVGID_4_" gradientUnits="userSpaceOnUse" x1="13.8004" y1="-58.3251" x2="13.8004" y2="-0.7499">
		<stop  offset="0.2315" style="stop-color:#D43535"/>
		<stop  offset="0.3002" style="stop-color:#EB3B3B"/>
		<stop  offset="0.496" style="stop-color:#EC3E3E"/>
		<stop  offset="0.6401" style="stop-color:#ED4747"/>
		<stop  offset="0.7675" style="stop-color:#F05757"/>
		<stop  offset="0.8847" style="stop-color:#F46E6E"/>
		<stop  offset="0.995" style="stop-color:#FA8A8A"/>
		<stop  offset="1" style="stop-color:#FA8C8C"/>
	</linearGradient>
	<path opacity="0.8" fill="url(#SVGID_4_)" stroke="#000000" stroke-width="1.5" stroke-miterlimit="10" d="M0.8-15.3
		c0,8,5.8,14.5,13.1,14.5s13.1-6.5,13.1-14.5c0-16.9-17.7-29.8-17.7-38.5c0-2.5,2.1-4.6,4.6-4.6s4.6,2.1,4.6,4.6
		C18.4-46,0.8-32.5,0.8-15.3z"/>
	<path fill="none" stroke="#000000" stroke-width="1.5" stroke-miterlimit="10" d="M0.8-15.3c0,8,5.8,14.5,13.1,14.5
		s13.1-6.5,13.1-14.5c0-16.9-17.7-29.8-17.7-38.5c0-2.5,2.1-4.6,4.6-4.6s4.6,2.1,4.6,4.6C18.4-46,0.8-32.5,0.8-15.3z"/>
	<path d="M11-20.5c0,1.5-1,2.8-2.3,2.8S6.4-19,6.4-20.5s1-2.8,2.3-2.8S11-22.1,11-20.5z"/>
	<path d="M19.7-20.5c0,1.5-1,2.8-2.3,2.8c-1.3,0-2.3-1.2-2.3-2.8s1-2.8,2.3-2.8C18.6-23.3,19.7-22.1,19.7-20.5z"/>
	<path fill="none" stroke="#000000" stroke-width="2" stroke-linecap="round" stroke-miterlimit="10" d="M10.5-29.6
		c2.5-2.5,5-2.3,7,1"/>
	<polygon display="none" fill="none" points="0,0 40,0 40,-66 0,-66 	"/>
</symbol>
<symbol  id="_x23_neutral" viewBox="0 -66.2 40 66.2">
	
		<radialGradient id="SVGID_5_" cx="16.8237" cy="-58.4958" r="21.9247" gradientTransform="matrix(0.9756 -0.2197 0.1218 0.5408 7.5361 -23.1622)" gradientUnits="userSpaceOnUse">
		<stop  offset="0" style="stop-color:#000000;stop-opacity:0.3"/>
		<stop  offset="1" style="stop-color:#000000;stop-opacity:0"/>
	</radialGradient>
	<path fill="url(#SVGID_5_)" d="M39.5-59c0-3.4-2.7-7.2-12.7-7.2S4.6-62.4,4.6-59s7,6.2,17,6.2S39.5-55.6,39.5-59z"/>
	<linearGradient id="SVGID_6_" gradientUnits="userSpaceOnUse" x1="13.8004" y1="-58.3251" x2="13.8004" y2="-0.7499">
		<stop  offset="0.2315" style="stop-color:#D43535"/>
		<stop  offset="0.3002" style="stop-color:#EB3B3B"/>
		<stop  offset="0.496" style="stop-color:#EC3E3E"/>
		<stop  offset="0.6401" style="stop-color:#ED4747"/>
		<stop  offset="0.7675" style="stop-color:#F05757"/>
		<stop  offset="0.8847" style="stop-color:#F46E6E"/>
		<stop  offset="0.995" style="stop-color:#FA8A8A"/>
		<stop  offset="1" style="stop-color:#FA8C8C"/>
	</linearGradient>
	<path opacity="0.8" fill="url(#SVGID_6_)" stroke="#000000" stroke-width="1.5" stroke-miterlimit="10" d="M0.8-15.3
		c0,8,5.8,14.5,13.1,14.5s13.1-6.5,13.1-14.5c0-16.9-17.7-29.8-17.7-38.5c0-2.5,2.1-4.6,4.6-4.6s4.6,2.1,4.6,4.6
		C18.4-46,0.8-32.5,0.8-15.3z"/>
	<path fill="none" stroke="#000000" stroke-width="1.5" stroke-miterlimit="10" d="M0.8-15.3c0,8,5.8,14.5,13.1,14.5
		s13.1-6.5,13.1-14.5c0-16.9-17.7-29.8-17.7-38.5c0-2.5,2.1-4.6,4.6-4.6s4.6,2.1,4.6,4.6C18.4-46,0.8-32.5,0.8-15.3z"/>
	<path d="M11-21c0,1.3-1,2.3-2.3,2.3s-2.3-1-2.3-2.3s1-2.3,2.3-2.3S11-22.3,11-21z"/>
	<path d="M21.7-21c0,1.3-1,2.3-2.3,2.3c-1.3,0-2.3-1-2.3-2.3s1-2.3,2.3-2.3C20.6-23.3,21.7-22.3,21.7-21z"/>
	
		<line fill="none" stroke="#000000" stroke-width="2" stroke-linecap="round" stroke-miterlimit="10" x1="10" y1="-30" x2="17" y2="-30"/>
	<polygon display="none" fill="none" points="0,0 40,0 40,-66 0,-66 	"/>
</symbol>
<symbol  id="_x23_sad" viewBox="0 -66.2 40 66.2">
	
		<radialGradient id="SVGID_7_" cx="16.8237" cy="-58.4958" r="21.9247" gradientTransform="matrix(0.9756 -0.2197 0.1218 0.5408 7.5361 -23.1622)" gradientUnits="userSpaceOnUse">
		<stop  offset="0" style="stop-color:#000000;stop-opacity:0.3"/>
		<stop  offset="1" style="stop-color:#000000;stop-opacity:0"/>
	</radialGradient>
	<path fill="url(#SVGID_7_)" d="M39.5-59c0-3.4-2.7-7.2-12.7-7.2S4.6-62.4,4.6-59s7,6.2,17,6.2S39.5-55.6,39.5-59z"/>
	<linearGradient id="SVGID_8_" gradientUnits="userSpaceOnUse" x1="13.8004" y1="-58.3251" x2="13.8004" y2="-0.7499">
		<stop  offset="0.2315" style="stop-color:#D43535"/>
		<stop  offset="0.3002" style="stop-color:#EB3B3B"/>
		<stop  offset="0.496" style="stop-color:#EC3E3E"/>
		<stop  offset="0.6401" style="stop-color:#ED4747"/>
		<stop  offset="0.7675" style="stop-color:#F05757"/>
		<stop  offset="0.8847" style="stop-color:#F46E6E"/>
		<stop  offset="0.995" style="stop-color:#FA8A8A"/>
		<stop  offset="1" style="stop-color:#FA8C8C"/>
	</linearGradient>
	<path opacity="0.8" fill="url(#SVGID_8_)" stroke="#000000" stroke-width="1.5" stroke-miterlimit="10" d="M0.8-15.3
		c0,8,5.8,14.5,13.1,14.5s13.1-6.5,13.1-14.5c0-16.9-17.7-29.8-17.7-38.5c0-2.5,2.1-4.6,4.6-4.6s4.6,2.1,4.6,4.6
		C18.4-46,0.8-32.5,0.8-15.3z"/>
	<path fill="none" stroke="#000000" stroke-width="1.5" stroke-miterlimit="10" d="M0.8-15.3c0,8,5.8,14.5,13.1,14.5
		s13.1-6.5,13.1-14.5c0-16.9-17.7-29.8-17.7-38.5c0-2.5,2.1-4.6,4.6-4.6s4.6,2.1,4.6,4.6C18.4-46,0.8-32.5,0.8-15.3z"/>
	<path fill="none" stroke="#000000" stroke-width="2" stroke-linecap="round" stroke-miterlimit="10" d="M10.5-31.4
		c0,1.2,1.1,2.6,3.3,2.6c2.3,0,3.4-1.3,3.7-2.6"/>
	<path d="M9.4-19.6c0,1-0.7,1.8-1.5,1.8s-1.5-0.8-1.5-1.8c0-1,0.7-1.8,1.5-1.8S9.4-20.6,9.4-19.6z"/>
	<path d="M20.1-19.6c0,1-0.7,1.8-1.5,1.8c-0.8,0-1.5-0.8-1.5-1.8c0-1,0.7-1.8,1.5-1.8C19.4-21.4,20.1-20.6,20.1-19.6z"/>
	<polygon display="none" fill="none" points="0,0 40,0 40,-66 0,-66 	"/>
</symbol>
<g id="bg">
</g>
<g id="Ebene_1">
	<use xlink:href="#_x23_neutral"  width="40" height="66.2" y="-66.2" transform="matrix(1 0 0 -1 0 0)" overflow="visible"/>
	<use xlink:href="#_x23_happy"  width="40" height="66.2" y="-66.2" transform="matrix(1 0 0 -1 0 68)" overflow="visible"/>
	<use xlink:href="#_x23_dead"  width="40" height="66.2" y="-66.2" transform="matrix(1 0 0 -1 0 136)" overflow="visible"/>
	<use xlink:href="#_x23_sad"  width="40" height="66.2" y="-66.2" transform="matrix(1 0 0 -1 0 204)" overflow="visible"/>
</g>
<g id="Ebene_3">
</g>
</svg>
